<svg width="1200" height="420" viewBox="0 0 1200 420" fill="none" xmlns="http://www.w3.org/2000/svg">
  <rect width="1200" height="420" rx="28" fill="#EEF4FF"/>
  <rect x="50" y="54" width="352" height="312" rx="20" fill="#FFFFFF" stroke="#D7E2FA" stroke-width="6"/>
  <rect x="424" y="54" width="352" height="312" rx="20" fill="#FFFFFF" stroke="#D7E2FA" stroke-width="6"/>
  <rect x="798" y="54" width="352" height="312" rx="20" fill="#FFFFFF" stroke="#D7E2FA" stroke-width="6"/>
  <circle cx="226" cy="184" r="76" fill="#E2EDFF"/>
  <circle cx="226" cy="184" r="49" fill="#648AD8"/>
  <rect x="122" y="287" width="208" height="18" rx="9" fill="#E6EEFF"/>
  <path d="M496 148H708" stroke="#5D7DD4" stroke-width="16" stroke-linecap="round"/>
  <path d="M496 188H708" stroke="#89A2E3" stroke-width="16" stroke-linecap="round"/>
  <path d="M496 228H640" stroke="#B5C6EE" stroke-width="16" stroke-linecap="round"/>
  <rect x="848" y="120" width="250" height="40" rx="20" fill="#DDF3E8"/>
  <rect x="848" y="178" width="210" height="40" rx="20" fill="#E9F0FF"/>
  <rect x="848" y="236" width="170" height="40" rx="20" fill="#FFEFD9"/>
  <path d="M84 380H1116" stroke="#B8CDEF" stroke-width="10" stroke-linecap="round"/>
  <text x="420" y="402" fill="#43567A" font-family="Arial, sans-serif" font-size="26" font-weight="700">Realtime Laundry Operations</text>
</svg>
