<svg width="960" height="640" viewBox="0 0 960 640" fill="none" xmlns="http://www.w3.org/2000/svg">
  <rect width="960" height="640" rx="36" fill="#EAF2FF"/>
  <circle cx="150" cy="100" r="80" fill="#D5E6FF"/>
  <circle cx="860" cy="560" r="140" fill="#CEE9DB"/>
  <rect x="176" y="130" width="610" height="390" rx="28" fill="#F9FBFF" stroke="#C7D8F9" stroke-width="8"/>
  <rect x="240" y="195" width="220" height="270" rx="24" fill="#FFFFFF" stroke="#D8E4FA" stroke-width="6"/>
  <rect x="500" y="195" width="220" height="270" rx="24" fill="#FFFFFF" stroke="#D8E4FA" stroke-width="6"/>
  <circle cx="350" cy="270" r="58" fill="#DDEBFF"/>
  <circle cx="350" cy="270" r="40" fill="#5B7FCF"/>
  <circle cx="610" cy="270" r="58" fill="#DDEBFF"/>
  <circle cx="610" cy="270" r="40" fill="#6FB49A"/>
  <rect x="270" y="360" width="160" height="22" rx="11" fill="#E7EFFF"/>
  <rect x="530" y="360" width="160" height="22" rx="11" fill="#E3F4EC"/>
  <path d="M120 535H840" stroke="#B4C9EE" stroke-width="12" stroke-linecap="round"/>
  <path d="M130 535C210 500 286 500 362 535C438 570 518 570 592 535C666 500 742 500 830 535" stroke="#6EA3D9" stroke-width="10" stroke-linecap="round"/>
  <text x="265" y="590" fill="#3D5072" font-family="Arial, sans-serif" font-size="34" font-weight="700">Professional Laundry Workflow</text>
</svg>
